<svg viewBox="0 0 20 25" xmlns="http://www.w3.org/2000/svg" fill-rule="evenodd" clip-rule="evenodd" stroke-linejoin="round" stroke-miterlimit="1.414"><g fill="#9f2042" fill-rule="nonzero"><path d="M12.214 16.119l-1.331 1.331v-5.599a.598.598 0 0 0-.597-.596.598.598 0 0 0-.596.596v5.604l-1.331-1.332a.598.598 0 0 0-.845.845l2.345 2.345a.598.598 0 0 0 .845 0l2.354-2.355a.595.595 0 1 0-.844-.839z"/><path d="M19.875 21.087L18.493 5.522a.59.59 0 0 0-.596-.541h-2.911a4.708 4.708 0 0 0-4.7-4.695 4.707 4.707 0 0 0-4.699 4.695H2.676a.599.599 0 0 0-.597.541L.698 21.087v.054c0 1.734 1.595 3.145 3.552 3.145h12.073c1.957 0 3.552-1.411 3.552-3.145v-.054zM10.286 1.478a3.513 3.513 0 0 1 3.508 3.503H6.779a3.512 3.512 0 0 1 3.507-3.503zm6.037 21.61H4.25c-1.291 0-2.344-.859-2.359-1.927L3.222 6.173h2.365v2.091c0 .328.268.596.596.596a.597.597 0 0 0 .596-.596V6.173h7.015v2.091c0 .328.268.596.596.596a.597.597 0 0 0 .596-.596V6.173h2.365l1.331 14.993c-.015 1.063-1.068 1.922-2.359 1.922z"/></g></svg>